<svg width="128" height="20" viewBox="0 0 128 20" fill="none" xmlns="http://www.w3.org/2000/svg">
<path d="M5.35247 18.8193V2.96482H8.95461V18.8193H5.35247ZM0 3.47216V0.30127H14.3071V3.47216H0Z" fill="#0014CB"/>
<path d="M14.5639 18.8193V5.04493H17.3543V10.8794H17.2782C17.2782 8.90074 17.701 7.40407 18.5466 6.38939C19.3921 5.3747 20.6351 4.86736 22.2755 4.86736H22.7829V7.93678H21.8189C20.6351 7.93678 19.7135 8.2581 19.0539 8.90074C18.4113 9.52646 18.09 10.4397 18.09 11.6404V18.8193H14.5639Z" fill="#0014CB"/>
<path d="M31.8913 18.8193V14.7352H31.3078V10.1945C31.3078 9.39962 31.1133 8.80772 30.7244 8.41876C30.3354 8.0298 29.7351 7.83531 28.9233 7.83531C28.5005 7.83531 27.9932 7.84377 27.4013 7.86068C26.8094 7.87759 26.209 7.90296 25.6002 7.93678C25.0083 7.9537 24.4756 7.97906 24.0021 8.01289V5.01956C24.391 4.98574 24.8307 4.95191 25.3212 4.91809C25.8116 4.88427 26.3105 4.86736 26.8178 4.86736C27.3421 4.85045 27.8325 4.84199 28.2891 4.84199C29.7097 4.84199 30.885 5.02802 31.8152 5.40007C32.7622 5.77212 33.4725 6.35556 33.946 7.1504C34.4364 7.94524 34.6817 8.98529 34.6817 10.2706V18.8193H31.8913ZM27.452 19.1744C26.4542 19.1744 25.5748 18.9969 24.8138 18.6417C24.0697 18.2866 23.4863 17.7792 23.0635 17.1197C22.6576 16.4601 22.4547 15.6653 22.4547 14.7352C22.4547 13.7205 22.6999 12.8918 23.1903 12.2492C23.6977 11.6066 24.3995 11.1246 25.2958 10.8033C26.209 10.482 27.2744 10.3213 28.4921 10.3213H31.6883V12.4268H28.4413C27.6296 12.4268 27.0039 12.6297 26.5642 13.0356C26.1414 13.4245 25.93 13.9319 25.93 14.5576C25.93 15.1833 26.1414 15.6907 26.5642 16.0796C27.0039 16.4686 27.6296 16.6631 28.4413 16.6631C28.9318 16.6631 29.3799 16.5785 29.7858 16.4094C30.2086 16.2234 30.5553 15.919 30.8259 15.4962C31.1133 15.0565 31.274 14.4646 31.3078 13.7205L32.1703 14.7098C32.0858 15.6738 31.849 16.4855 31.46 17.1451C31.088 17.8046 30.5637 18.312 29.8873 18.6671C29.2277 19.0053 28.416 19.1744 27.452 19.1744Z" fill="#0014CB"/>
<path d="M36.9366 18.8193V5.04493H39.727V10.9555H39.4733C39.4733 9.55183 39.6593 8.38494 40.0314 7.45481C40.4034 6.50777 40.953 5.79749 41.6802 5.32397C42.4243 4.85045 43.346 4.61369 44.4452 4.61369H44.5974C46.2379 4.61369 47.4808 5.1464 48.3264 6.21182C49.172 7.26033 49.5948 8.83309 49.5948 10.9301V18.8193H46.0687V10.6257C46.0687 9.78013 45.8235 9.09522 45.3331 8.57096C44.8596 8.04671 44.2 7.78458 43.3545 7.78458C42.492 7.78458 41.7901 8.05516 41.249 8.59633C40.7247 9.12058 40.4626 9.83086 40.4626 10.7272V18.8193H36.9366Z" fill="#0014CB"/>
<path d="M56.8609 19.2505C54.9668 19.2505 53.4786 18.8531 52.3963 18.0583C51.3308 17.2465 50.7728 16.1304 50.722 14.7098H53.8929C53.9437 15.1833 54.2058 15.6146 54.6793 16.0035C55.1528 16.3925 55.8969 16.587 56.9116 16.587C57.7572 16.587 58.4252 16.4348 58.9156 16.1304C59.423 15.826 59.6766 15.4116 59.6766 14.8874C59.6766 14.4308 59.4822 14.0672 59.0932 13.7966C58.7211 13.526 58.0785 13.3484 57.1653 13.2639L55.9477 13.1371C54.4087 12.9679 53.2249 12.5282 52.3963 11.818C51.5676 11.1077 51.1533 10.1606 51.1533 8.97684C51.1533 8.0298 51.39 7.23496 51.8635 6.59232C52.3371 5.94969 52.9882 5.46771 53.8168 5.1464C54.6624 4.80817 55.6263 4.63905 56.7087 4.63905C58.3998 4.63905 59.7696 5.0111 60.8182 5.75521C61.8667 6.49931 62.4163 7.5901 62.467 9.02757H59.2961C59.2623 8.55405 59.0255 8.14818 58.5858 7.80995C58.1462 7.47172 57.512 7.3026 56.6833 7.3026C55.9392 7.3026 55.3642 7.44635 54.9583 7.73385C54.5525 8.02134 54.3495 8.39339 54.3495 8.85C54.3495 9.2897 54.5102 9.62793 54.8315 9.86469C55.1697 10.1014 55.7109 10.2621 56.455 10.3467L57.6726 10.4735C59.2961 10.6426 60.5645 11.0908 61.4777 11.818C62.4078 12.5451 62.8729 13.526 62.8729 14.7605C62.8729 15.6738 62.6192 16.4686 62.1119 17.1451C61.6214 17.8046 60.9281 18.3204 60.0318 18.6925C59.1355 19.0645 58.0785 19.2505 56.8609 19.2505Z" fill="#0014CB"/>
<path d="M64.4413 18.8193V0.30127H67.9673V18.8193H64.4413ZM62.7163 2.93945V0.30127H67.9673V2.93945H62.7163Z" fill="#0014CB"/>
<path d="M78.8166 18.8193V14.7352H78.2331V10.1945C78.2331 9.39962 78.0386 8.80772 77.6497 8.41876C77.2607 8.0298 76.6603 7.83531 75.8486 7.83531C75.4258 7.83531 74.9185 7.84377 74.3266 7.86068C73.7347 7.87759 73.1343 7.90296 72.5255 7.93678C71.9336 7.9537 71.4009 7.97906 70.9274 8.01289V5.01956C71.3163 4.98574 71.756 4.95191 72.2465 4.91809C72.7369 4.88427 73.2358 4.86736 73.7431 4.86736C74.2674 4.85045 74.7578 4.84199 75.2144 4.84199C76.635 4.84199 77.8103 5.02802 78.7404 5.40007C79.6875 5.77212 80.3978 6.35556 80.8713 7.1504C81.3617 7.94524 81.6069 8.98529 81.6069 10.2706V18.8193H78.8166ZM74.3773 19.1744C73.3795 19.1744 72.5001 18.9969 71.7391 18.6417C70.995 18.2866 70.4116 17.7792 69.9888 17.1197C69.5829 16.4601 69.38 15.6653 69.38 14.7352C69.38 13.7205 69.6252 12.8918 70.1156 12.2492C70.623 11.6066 71.3248 11.1246 72.2211 10.8033C73.1343 10.482 74.1997 10.3213 75.4174 10.3213H78.6136V12.4268H75.3666C74.5549 12.4268 73.9291 12.6297 73.4894 13.0356C73.0667 13.4245 72.8553 13.9319 72.8553 14.5576C72.8553 15.1833 73.0667 15.6907 73.4894 16.0796C73.9291 16.4686 74.5549 16.6631 75.3666 16.6631C75.857 16.6631 76.3052 16.5785 76.7111 16.4094C77.1339 16.2234 77.4805 15.919 77.7511 15.4962C78.0386 15.0565 78.1993 14.4646 78.2331 13.7205L79.0956 14.7098C79.011 15.6738 78.7743 16.4855 78.3853 17.1451C78.0133 17.8046 77.489 18.312 76.8125 18.6671C76.153 19.0053 75.3412 19.1744 74.3773 19.1744Z" fill="#0014CB"/>
<path d="M89.8485 18.9969C88.5801 18.9969 87.5316 18.8362 86.703 18.5149C85.8912 18.1767 85.2824 17.6186 84.8765 16.8407C84.4707 16.0458 84.2677 14.9804 84.2677 13.6444L84.2931 1.16375H87.5908L87.5654 13.8727C87.5654 14.5492 87.743 15.0734 88.0982 15.4455C88.4702 15.8006 88.9945 15.9782 89.6709 15.9782H91.8271V18.9969H89.8485ZM82.0861 7.63238V5.04493H91.8271V7.63238H82.0861Z" fill="#0014CB"/>
<path d="M99.3544 19.3013C98.1706 19.3013 97.1306 19.0983 96.2343 18.6925C95.3549 18.2866 94.6192 17.7454 94.0273 17.069C93.4523 16.3756 93.0126 15.6061 92.7082 14.7605C92.4207 13.915 92.277 13.0525 92.277 12.1731V11.6911C92.277 10.7779 92.4207 9.89851 92.7082 9.05294C93.0126 8.19046 93.4523 7.42944 94.0273 6.76989C94.6192 6.09344 95.3464 5.56073 96.2089 5.17176C97.0714 4.76589 98.0692 4.56295 99.2022 4.56295C100.69 4.56295 101.933 4.89272 102.931 5.55227C103.946 6.19491 104.707 7.04893 105.214 8.11435C105.722 9.16286 105.975 10.2959 105.975 11.5136V12.7819H93.7737V10.6257H103.768L102.678 11.6911C102.678 10.8117 102.551 10.0592 102.297 9.43345C102.043 8.80772 101.654 8.32575 101.13 7.98752C100.623 7.64929 99.9802 7.48017 99.2022 7.48017C98.4243 7.48017 97.7648 7.65774 97.2236 8.01289C96.6824 8.36803 96.2681 8.88382 95.9806 9.56028C95.71 10.2198 95.5747 11.0147 95.5747 11.9448C95.5747 12.8073 95.71 13.5767 95.9806 14.2532C96.2512 14.9128 96.6655 15.437 97.2236 15.826C97.7817 16.198 98.4919 16.384 99.3544 16.384C100.217 16.384 100.919 16.2149 101.46 15.8767C102.001 15.5216 102.348 15.0903 102.5 14.583H105.747C105.544 15.53 105.155 16.3587 104.58 17.069C104.005 17.7792 103.269 18.3289 102.373 18.7178C101.494 19.1068 100.487 19.3013 99.3544 19.3013Z" fill="#0014CB"/>
<path d="M113.106 19.2759C112.142 19.2759 111.255 19.0983 110.443 18.7432C109.631 18.3881 108.929 17.8892 108.337 17.2465C107.745 16.6039 107.289 15.8598 106.968 15.0142C106.646 14.1517 106.486 13.2216 106.486 12.2238V11.6911C106.486 10.7103 106.638 9.78859 106.942 8.9261C107.264 8.06362 107.703 7.31106 108.261 6.66843C108.836 6.02579 109.521 5.5269 110.316 5.17176C111.128 4.79971 112.024 4.61369 113.005 4.61369C114.087 4.61369 115.034 4.85045 115.846 5.32397C116.675 5.78058 117.334 6.47394 117.825 7.40407C118.315 8.3342 118.586 9.50109 118.636 10.9047L117.596 9.68712V0.30127H121.122V18.8193H118.332V12.9595H118.941C118.89 14.3631 118.603 15.5385 118.078 16.4855C117.554 17.4156 116.861 18.1175 115.998 18.591C115.153 19.0476 114.189 19.2759 113.106 19.2759ZM113.893 16.3079C114.586 16.3079 115.22 16.1557 115.795 15.8513C116.37 15.53 116.827 15.0734 117.165 14.4815C117.52 13.8727 117.698 13.1624 117.698 12.3507V11.336C117.698 10.5242 117.52 9.84778 117.165 9.30661C116.81 8.74853 116.345 8.32575 115.77 8.03825C115.195 7.73385 114.569 7.58164 113.893 7.58164C113.132 7.58164 112.455 7.76767 111.863 8.13972C111.288 8.49486 110.832 9.0022 110.494 9.66175C110.172 10.3213 110.012 11.0908 110.012 11.9702C110.012 12.8496 110.181 13.619 110.519 14.2786C110.857 14.9212 111.314 15.4201 111.889 15.7752C112.481 16.1304 113.149 16.3079 113.893 16.3079Z" fill="#0014CB"/>
<path d="M123.056 18.8193V14.7605H127.013V18.8193H123.056Z" fill="#0014CB"/>
</svg>
